<?xml version="1.0" encoding="UTF-8"?>
<svg id="Layer_1" xmlns="http://www.w3.org/2000/svg" version="1.1" viewBox="0 0 119.2 19.12">
  <!-- Generator: Adobe Illustrator 29.8.2, SVG Export Plug-In . SVG Version: 2.1.1 Build 3)  -->
  <polygon points="12.02 7.75 11.73 7.75 9.62 .36 6.38 .36 6.38 18.39 9.62 18.39 9.62 10.99 9.9 10.99 12.02 18.39 15.26 18.39 15.26 .36 12.02 .36 12.02 7.75"/>
  <path d="M20.75.02h-1.01c-1.96,0-3.54,1.59-3.54,3.54v11.12c0,2.24,1.81,4.05,4.05,4.05s4.05-1.81,4.05-4.05V3.56C24.3,1.6,22.71.02,20.76.02h0ZM21.06,14.68c0,.45-.36.81-.81.81s-.81-.36-.81-.81V4.07c0-.45.36-.81.81-.81s.81.36.81.81v10.61Z"/>
  <polygon points="25.11 .36 25.11 3.6 27.59 3.6 27.59 18.39 30.83 18.39 30.83 3.6 33.26 3.6 33.26 .36 25.11 .36"/>
  <polygon points="36.65 18.39 39.89 18.39 39.89 3.6 42.32 3.6 42.32 .36 34.17 .36 34.17 3.6 36.65 3.6 36.65 18.39"/>
  <path d="M47.69.02h-1.01c-1.96,0-3.54,1.59-3.54,3.54v11.12c0,2.24,1.81,4.05,4.05,4.05s4.05-1.81,4.05-4.05V3.56c0-1.96-1.59-3.54-3.54-3.54h0ZM47.99,14.68c0,.45-.36.81-.81.81s-.81-.36-.81-.81V4.07c0-.45.36-.81.81-.81s.81.36.81.81v10.61Z"/>
  <polygon points="55.42 9.37 55.7 9.37 56.5 18.39 59.64 18.39 60.43 9.37 60.71 9.37 60.71 18.39 63.96 18.39 63.96 .36 58.86 .36 58.86 .37 58.21 9.37 57.93 9.37 57.27 .37 57.27 .36 52.18 .36 52.18 18.39 55.42 18.39 55.42 9.37"/>
  <path d="M69.46.02h-1.01c-1.96,0-3.54,1.59-3.54,3.54v11.12c0,2.24,1.81,4.05,4.05,4.05s4.05-1.81,4.05-4.05V3.56c0-1.96-1.59-3.54-3.54-3.54h-.01ZM69.76,14.68c0,.45-.36.81-.81.81s-.81-.36-.81-.81V4.07c0-.45.36-.81.81-.81s.81.36.81.81v10.61Z"/>
  <path d="M82.05,8.09V3.91c0-1.96-1.59-3.54-3.54-3.54h-4.56v18.02h3.24v-6.75h.27l1.31,6.75h3.58l-1.71-7.47c.86-.64,1.41-1.67,1.41-2.83ZM78.81,7.58c0,.45-.36.81-.81.81h-.81V3.6h.81c.45,0,.81.36.81.81,0,0,0,3.17,0,3.17Z"/>
  <path d="M91.11,8.09V3.91c0-1.96-1.59-3.54-3.54-3.54h-4.56v18.02h3.24v-6.75h.27l1.31,6.75h3.58l-1.71-7.47c.86-.64,1.41-1.67,1.41-2.83ZM87.87,7.58c0,.45-.36.81-.81.81h-.81V3.6h.81c.45,0,.81.36.81.81,0,0,0,3.17,0,3.17Z"/>
  <path d="M96.63.02h-1.01c-1.96,0-3.54,1.59-3.54,3.54v11.12c0,2.24,1.81,4.05,4.05,4.05s4.05-1.81,4.05-4.05V3.56c0-1.96-1.59-3.54-3.54-3.54h-.01ZM96.93,14.68c0,.45-.36.81-.81.81s-.81-.36-.81-.81V4.07c0-.45.36-.81.81-.81s.81.36.81.81v10.61Z"/>
  <polygon points="110.91 .36 110.12 15.15 109.83 15.15 109.03 .36 105.9 .36 105.1 15.15 104.81 15.15 104.02 .36 100.88 .36 101.89 18.39 107.04 18.39 107.32 11 107.6 11 107.89 18.39 113.04 18.39 114.05 .36 110.91 .36"/>
</svg>